<svg xmlns="http://www.w3.org/2000/svg" viewBox="0 0 512 256" aria-labelledby="title">
  <title>Rusted Barbell Spartan</title>
  <g fill="#C49A6C">
    <!-- bar -->
    <rect x="40" y="92" width="432" height="16" rx="8"/>
    <!-- left plates -->
    <rect x="24" y="76" width="24" height="48" rx="6"/>
    <rect x="4"  y="84" width="18" height="32" rx="6"/>
    <!-- right plates -->
    <rect x="464" y="76" width="24" height="48" rx="6"/>
    <rect x="490" y="84" width="18" height="32" rx="6"/>
    <!-- helmet + head -->
    <path d="M256 36c16 0 30 3 42 9l-10 18c-8-3-19-5-32-5s-24 2-32 5l-10-18c12-6 26-9 42-9z"/>
    <path d="M256 48c28 0 50 22 50 50v20c0 10-8 18-18 18h-64c-10 0-18-8-18-18v-20c0-28 22-50 50-50z"/>
    <!-- crest -->
    <path d="M246 20h20c6 0 10 4 10 10v14h-40V30c0-6 4-10 10-10z"/>
    <!-- arms -->
    <path d="M100 120c8-22 27-38 50-43l20-4 7 27-16 4c-11 3-19 10-23 20l-9 23-34-12 5-15z"/>
    <path d="M412 120c-8-22-27-38-50-43l-20-4-7 27 16 4c11 3 19 10 23 20l9 23 34-12-5-15z"/>
    <!-- torso -->
    <path d="M256 112c46 0 78 28 78 58 0 23-18 38-48 44-10 2-20 3-30 3s-20-1-30-3c-30-6-48-21-48-44 0-30 32-58 78-58z"/>
  </g>
</svg>
