<?xml version="1.0" encoding="UTF-8"?>
<svg xmlns="http://www.w3.org/2000/svg" viewBox="0 0 512 256" aria-labelledby="title" role="img">
  <title>Rusted Barbell Spartan</title>
  <!-- solid gold -->
  <g fill="#C49A6C">
    <!-- bar -->
    <rect x="24" y="92" width="464" height="18" rx="9"/>
    <!-- left plates -->
    <rect x="12" y="80" width="20" height="42" rx="6"/>
    <rect x="0"  y="88" width="16" height="26" rx="6"/>
    <!-- right plates -->
    <rect x="480" y="80" width="20" height="42" rx="6"/>
    <rect x="496" y="88" width="16" height="26" rx="6"/>

    <!-- helmet crest -->
    <path d="M238 26h36c7 0 12 5 12 12v18h-60V38c0-7 5-12 12-12z"/>
    <!-- helmet + head -->
    <path d="M256 42c30 0 54 24 54 54v16c0 12-10 22-22 22h-64c-12 0-22-10-22-22v-16c0-30 24-54 54-54z"/>
    <!-- shoulders/arms (stylized) -->
    <path d="M108 156c9-30 32-50 62-56l22-5 9 30-18 4c-13 3-22 11-26 22l-9 24-40-13 4-12z"/>
    <path d="M404 156c-9-30-32-50-62-56l-22-5-9 30 18 4c13 3 22 11 26 22l9 24 40-13-4-12z"/>

    <!-- torso (simple silhouette) -->
    <path d="M256 116c50 0 86 30 86 62 0 26-20 43-54 49-11 2-22 3-32 3s-21-1-32-3c-34-6-54-23-54-49 0-32 36-62 86-62z"/>
  </g>
</svg>
